<?xml version="1.0" standalone="no"?>
<!DOCTYPE svg PUBLIC "-//W3C//DTD SVG 20010904//EN"
 "http://www.w3.org/TR/2001/REC-SVG-20010904/DTD/svg10.dtd">
<svg version="1.0" xmlns="http://www.w3.org/2000/svg"
 width="175.000000pt" height="213.000000pt" viewBox="0 0 175.000000 213.000000"
 preserveAspectRatio="xMidYMid meet">

<g transform="translate(0.000000,213.000000) scale(0.100000,-0.100000)"
fill="#000000" stroke="none">
<path d="M834 2060 c-54 -22 -81 -102 -49 -144 8 -11 15 -15 15 -9 0 7 -4 15
-10 18 -5 3 -10 21 -10 40 0 40 33 81 70 90 34 7 88 -27 96 -61 8 -32 -7 -80
-24 -76 -7 1 -11 -3 -10 -9 2 -6 -13 -18 -32 -25 -32 -13 -33 -14 -5 -8 45 8
85 51 85 91 0 61 -73 115 -126 93z"/>
<path d="M811 2014 c-12 -15 -21 -36 -21 -48 1 -29 26 -60 41 -50 8 4 10 3 5
-4 -4 -7 -2 -12 3 -12 6 0 11 7 11 15 0 9 -7 15 -16 13 -24 -4 -38 24 -28 58
l8 29 4 -37 c2 -28 8 -38 20 -37 11 0 12 3 5 6 -7 2 -13 18 -13 34 0 18 4 28
10 24 6 -3 10 3 10 14 0 28 -14 26 -39 -5z"/>
<path d="M860 2025 c0 -8 5 -15 10 -15 6 0 10 4 10 10 0 22 30 -4 44 -38 12
-30 15 -32 15 -14 1 26 -40 72 -64 72 -8 0 -15 -7 -15 -15z"/>
<path d="M875 2000 c-19 -8 -19 -9 3 -9 12 -1 22 4 22 9 0 6 -1 10 -2 9 -2 0
-12 -4 -23 -9z"/>
<path d="M879 1973 c18 -4 22 -10 18 -30 -3 -16 -1 -21 5 -15 18 18 4 47 -22
49 -24 1 -24 1 -1 -4z"/>
<path d="M863 1925 c-1 -36 3 -40 26 -26 9 6 10 10 2 16 -7 3 -9 15 -6 26 4
12 2 19 -7 19 -9 0 -14 -13 -15 -35z"/>
<path d="M433 1933 c-27 -10 -9 -54 91 -217 99 -161 103 -170 90 -195 -8 -14
-41 -183 -75 -374 l-61 -349 21 -21 c21 -22 27 -22 376 -22 346 0 355 0 375
21 l21 21 -35 189 c-20 104 -49 267 -66 363 -16 95 -34 179 -40 186 -8 10 11
51 80 165 123 207 122 204 107 225 -8 10 -23 16 -38 13 -19 -2 -42 -34 -119
-163 l-95 -160 -3 45 c-2 26 -10 48 -18 53 -8 4 -14 16 -14 27 0 10 -6 20 -12
23 -10 3 -10 7 0 20 8 9 11 25 7 37 -5 17 -14 20 -58 18 l-52 -2 48 -3 c33 -3
47 -8 47 -19 0 -11 -23 -14 -130 -14 -107 0 -130 3 -130 14 0 11 14 16 48 19
l47 3 -52 2 -53 2 0 -40 c0 -29 -4 -40 -15 -40 -9 0 -20 -11 -25 -25 -5 -14
-14 -25 -19 -25 -5 0 -11 -15 -13 -32 -3 -31 -8 -24 -82 97 -105 172 -109 176
-153 158z m145 -170 c110 -185 136 -233 126 -233 -4 0 -1 -7 6 -15 15 -18 5
-35 -22 -35 -18 0 -20 4 -14 31 4 24 -1 41 -27 82 -59 92 -187 305 -193 321
-4 10 -1 16 9 16 9 0 55 -67 115 -167z m722 159 c0 -4 -4 -12 -9 -17 -26 -27
-228 -376 -220 -381 18 -11 10 -44 -11 -44 -18 0 -20 5 -16 40 4 42 22 76 145
283 52 87 81 127 93 127 10 0 18 -4 18 -8z m-300 -147 c0 -13 -21 -15 -125
-15 -104 0 -125 2 -125 15 0 13 21 15 125 15 104 0 125 -2 125 -15z m20 -40
c0 -13 -24 -15 -155 -15 -131 0 -155 2 -155 15 0 13 24 15 155 15 131 0 155
-2 155 -15z m-68 -32 c75 -4 95 -9 91 -19 -8 -21 -348 -20 -356 0 -3 8 -3 17
0 20 8 8 143 8 265 -1z m98 -58 c0 -13 -27 -15 -179 -15 -163 0 -203 5 -184
24 3 3 87 6 185 6 152 0 178 -2 178 -15z m-5 -45 c0 -13 -26 -15 -175 -15
-159 0 -175 2 -178 18 -3 16 9 17 175 15 150 -3 178 -5 178 -18z m-15 -50
c-10 -19 -21 -20 -160 -20 -83 0 -150 2 -150 4 0 2 -3 11 -6 20 -5 14 13 16
160 16 164 0 167 0 156 -20z m-370 -50 c0 -25 30 -41 53 -29 9 6 17 19 17 29
0 19 8 20 150 20 l150 0 0 -24 c0 -44 55 -44 66 0 9 35 32 29 39 -8 3 -18 30
-170 60 -338 30 -168 55 -318 55 -333 0 -54 -31 -58 -396 -55 -310 3 -324 4
-344 23 l-20 21 60 339 c33 187 63 348 66 358 8 24 44 22 44 -3z"/>
<path d="M631 1337 c-1 -5 -19 -108 -41 -229 -37 -203 -51 -315 -29 -228 19
75 80 442 75 453 -2 7 -5 8 -5 4z"/>
<path d="M801 1172 c-148 -75 -123 -295 39 -343 75 -23 163 19 199 94 47 97 2
221 -92 256 -42 16 -108 13 -146 -7z m157 -11 c99 -52 119 -191 40 -268 -108
-105 -267 -46 -284 104 -15 130 126 225 244 164z"/>
<path d="M834 1149 c-41 -12 -91 -69 -100 -114 -9 -49 19 -119 58 -146 42 -30
113 -35 158 -12 40 21 80 84 80 127 0 65 -62 147 -112 146 -7 0 2 -8 20 -17
49 -24 77 -69 76 -125 -2 -160 -223 -189 -265 -35 -13 49 9 116 48 147 50 39
87 14 43 -30 -25 -25 -25 -52 -1 -74 11 -10 22 -30 24 -45 4 -25 4 -24 6 4 0
19 -6 37 -19 48 -23 19 -18 43 14 69 18 14 19 20 9 37 -11 17 -9 20 10 24 19
4 19 4 2 5 -11 0 -34 -4 -51 -9z"/>
<path d="M891 1120 c0 -15 32 -60 43 -60 15 0 4 29 -13 35 -11 3 -22 14 -24
23 -3 12 -5 13 -6 2z"/>
<path d="M862 1055 c0 -16 2 -22 5 -12 2 9 2 23 0 30 -3 6 -5 -1 -5 -18z"/>
<path d="M891 1015 c1 -38 5 -65 11 -65 6 0 8 11 5 25 -3 16 0 24 7 22 6 -2
12 -14 14 -26 3 -16 -2 -24 -17 -28 -15 -4 -21 -13 -20 -32 1 -15 3 -19 6 -9
2 9 15 24 29 32 31 21 30 41 -2 71 -19 18 -25 31 -22 50 3 14 2 25 -3 25 -5 0
-8 -29 -8 -65z"/>
<path d="M820 957 c0 -2 14 -19 30 -37 28 -31 30 -32 30 -11 0 14 -7 25 -20
28 -11 3 -20 9 -20 14 0 5 -4 9 -10 9 -5 0 -10 -1 -10 -3z"/>
<path d="M1121 1188 c-1 -3 10 -83 24 -178 14 -95 25 -177 25 -183 0 -7 3 -7
9 -2 9 10 -31 297 -48 345 -5 14 -10 22 -10 18z"/>
<path d="M817 1889 c7 -7 15 -10 18 -7 3 3 -2 9 -12 12 -14 6 -15 5 -6 -5z"/>
<path d="M372 392 c-8 -2 -12 -33 -12 -103 l0 -99 41 0 c41 0 78 14 91 34 14
21 8 55 -13 69 -13 9 -16 17 -10 22 14 8 14 62 1 70 -13 8 -81 13 -98 7z m89
-28 c20 -24 -1 -48 -45 -52 -35 -3 -36 -2 -36 32 0 34 2 36 34 36 18 0 39 -7
47 -16z m17 -108 c4 -35 -10 -46 -60 -46 -38 0 -38 0 -38 41 l0 40 48 -3 c44
-3 47 -5 50 -32z"/>
<path d="M709 348 c-2 -58 4 -124 12 -140 6 -11 20 -18 37 -17 l27 1 -27 10
c-26 9 -28 14 -28 63 0 48 3 54 23 58 l22 4 -22 2 c-16 1 -23 7 -23 21 0 28
-20 25 -21 -2z"/>
<path d="M831 353 c0 -13 -7 -23 -13 -23 -10 0 -10 -2 -1 -8 6 -4 13 -34 15
-67 3 -59 4 -60 33 -63 l30 -3 -25 13 c-21 11 -25 22 -28 65 -3 50 -2 52 25
56 l28 4 -27 2 c-19 1 -28 7 -31 24 l-4 22 -2 -22z"/>
<path d="M1180 351 c0 -11 -6 -22 -12 -24 -10 -4 -10 -6 0 -6 8 -1 12 -17 12
-47 0 -57 14 -84 43 -83 l22 0 -22 9 c-20 8 -23 17 -23 64 0 49 2 55 23 59
l22 4 -22 2 c-16 1 -23 7 -23 21 0 11 -4 20 -10 20 -5 0 -10 -9 -10 -19z"/>
<path d="M575 330 c-16 -6 -13 -8 15 -11 27 -3 36 -9 38 -26 3 -18 -2 -23 -18
-23 -32 0 -60 -18 -60 -39 0 -27 21 -40 63 -38 l37 2 0 56 c0 34 -5 61 -12 66
-22 16 -42 21 -63 13z m55 -94 c0 -32 -36 -45 -59 -21 -15 15 -15 17 3 31 31
22 56 18 56 -10z"/>
<path d="M960 329 c-24 -7 -24 -7 6 -8 61 -2 73 -45 15 -55 -28 -4 -42 -12
-46 -27 -11 -33 16 -53 60 -45 l36 7 -3 61 c-3 67 -18 82 -68 67z m57 -85 c8
-23 -20 -47 -46 -39 -25 8 -28 42 -3 48 33 9 43 7 49 -9z"/>
<path d="M1290 257 c0 -43 4 -66 10 -62 6 3 10 31 10 60 0 50 2 55 26 61 36 9
48 -7 55 -74 l6 -57 1 60 c2 78 -4 87 -61 83 l-47 -3 0 -68z"/>
<path d="M1100 205 c0 -8 5 -15 10 -15 6 0 10 7 10 15 0 8 -4 15 -10 15 -5 0
-10 -7 -10 -15z"/>
</g>
</svg>
